<mxfile host="app.diagrams.net" modified="2022-04-08T11:37:34.728Z" agent="5.0 (Windows NT 10.0; Win64; x64) AppleWebKit/537.36 (KHTML, like Gecko) Chrome/100.0.4896.75 Safari/537.36" etag="IiL2TYwQE0QCSepXeWNs" version="17.4.1" type="github">
  <diagram id="YeLT6GVh3PedhH0xsYGV" name="Page-1">
    <mxGraphModel dx="1185" dy="662" grid="1" gridSize="10" guides="1" tooltips="1" connect="1" arrows="1" fold="1" page="1" pageScale="1" pageWidth="850" pageHeight="1100" math="0" shadow="0">
      <root>
        <mxCell id="0" />
        <mxCell id="1" parent="0" />
        <mxCell id="Psn35w7AXA0jimtYUnMg-16" value="" style="rounded=0;whiteSpace=wrap;html=1;fontSize=12;fillColor=#f8cecc;strokeColor=#b85450;" vertex="1" parent="1">
          <mxGeometry x="570" y="150" width="290" height="432.5" as="geometry" />
        </mxCell>
        <mxCell id="Psn35w7AXA0jimtYUnMg-41" value="" style="rounded=0;whiteSpace=wrap;html=1;fontSize=12;fillColor=#ffe6cc;strokeColor=#d79b00;" vertex="1" parent="1">
          <mxGeometry x="570" y="271.25" width="70" height="197.5" as="geometry" />
        </mxCell>
        <mxCell id="Psn35w7AXA0jimtYUnMg-3" style="edgeStyle=orthogonalEdgeStyle;rounded=0;orthogonalLoop=1;jettySize=auto;html=1;exitX=0.5;exitY=1;exitDx=0;exitDy=0;fontSize=12;" edge="1" parent="1" source="Psn35w7AXA0jimtYUnMg-1" target="Psn35w7AXA0jimtYUnMg-2">
          <mxGeometry relative="1" as="geometry" />
        </mxCell>
        <mxCell id="Psn35w7AXA0jimtYUnMg-1" value="字节码中遇到new指令" style="rounded=1;whiteSpace=wrap;html=1;" vertex="1" parent="1">
          <mxGeometry x="260" y="60" width="140" height="50" as="geometry" />
        </mxCell>
        <mxCell id="Psn35w7AXA0jimtYUnMg-11" style="edgeStyle=orthogonalEdgeStyle;rounded=0;orthogonalLoop=1;jettySize=auto;html=1;exitX=1;exitY=0.5;exitDx=0;exitDy=0;entryX=0.5;entryY=0;entryDx=0;entryDy=0;fontSize=12;fontColor=#FF0000;" edge="1" parent="1" source="Psn35w7AXA0jimtYUnMg-2" target="Psn35w7AXA0jimtYUnMg-9">
          <mxGeometry relative="1" as="geometry" />
        </mxCell>
        <mxCell id="Psn35w7AXA0jimtYUnMg-13" style="edgeStyle=orthogonalEdgeStyle;rounded=0;orthogonalLoop=1;jettySize=auto;html=1;exitX=0.5;exitY=1;exitDx=0;exitDy=0;entryX=0.5;entryY=0;entryDx=0;entryDy=0;fontSize=12;fontColor=#000000;" edge="1" parent="1" source="Psn35w7AXA0jimtYUnMg-2" target="Psn35w7AXA0jimtYUnMg-6">
          <mxGeometry relative="1" as="geometry" />
        </mxCell>
        <mxCell id="Psn35w7AXA0jimtYUnMg-2" value="&lt;font style=&quot;font-size: 12px&quot;&gt;字符串常量池中能否对应到符号引用，&lt;br&gt;对应的类知否被加载&lt;br&gt;&lt;/font&gt;" style="rhombus;whiteSpace=wrap;html=1;" vertex="1" parent="1">
          <mxGeometry x="220" y="140" width="220" height="80" as="geometry" />
        </mxCell>
        <mxCell id="Psn35w7AXA0jimtYUnMg-15" style="edgeStyle=orthogonalEdgeStyle;rounded=0;orthogonalLoop=1;jettySize=auto;html=1;exitX=0.5;exitY=1;exitDx=0;exitDy=0;entryX=0.5;entryY=0;entryDx=0;entryDy=0;fontSize=12;fontColor=#000000;" edge="1" parent="1" source="Psn35w7AXA0jimtYUnMg-6" target="Psn35w7AXA0jimtYUnMg-14">
          <mxGeometry relative="1" as="geometry" />
        </mxCell>
        <mxCell id="Psn35w7AXA0jimtYUnMg-6" value="为新生对象&lt;font color=&quot;#ff0000&quot;&gt;分配内存&lt;/font&gt;&lt;br&gt;1.指针碰撞（标记整理）&lt;br&gt;2.空闲列表（标记清除）" style="rounded=0;whiteSpace=wrap;html=1;fontSize=12;fillColor=#fff2cc;strokeColor=#d6b656;" vertex="1" parent="1">
          <mxGeometry x="255" y="250" width="150" height="50" as="geometry" />
        </mxCell>
        <mxCell id="Psn35w7AXA0jimtYUnMg-7" value="牵扯到并发线程安全问题&lt;br&gt;1.指针更新CAS失败重试&lt;br&gt;2.Use TLAB" style="rounded=1;whiteSpace=wrap;html=1;fontSize=12;fillColor=#dae8fc;strokeColor=#6c8ebf;" vertex="1" parent="1">
          <mxGeometry x="75" y="245" width="160" height="60" as="geometry" />
        </mxCell>
        <mxCell id="Psn35w7AXA0jimtYUnMg-12" style="edgeStyle=orthogonalEdgeStyle;rounded=0;orthogonalLoop=1;jettySize=auto;html=1;exitX=0.5;exitY=1;exitDx=0;exitDy=0;entryX=1;entryY=0.5;entryDx=0;entryDy=0;fontSize=12;fontColor=#FF0000;" edge="1" parent="1" source="Psn35w7AXA0jimtYUnMg-9" target="Psn35w7AXA0jimtYUnMg-6">
          <mxGeometry relative="1" as="geometry" />
        </mxCell>
        <mxCell id="Psn35w7AXA0jimtYUnMg-9" value="&lt;font color=&quot;#000000&quot;&gt;类加载&lt;/font&gt;" style="rounded=0;whiteSpace=wrap;html=1;fontSize=12;fillColor=#f8cecc;strokeColor=#b85450;" vertex="1" parent="1">
          <mxGeometry x="425" y="200" width="120" height="40" as="geometry" />
        </mxCell>
        <mxCell id="Psn35w7AXA0jimtYUnMg-19" style="edgeStyle=orthogonalEdgeStyle;rounded=0;orthogonalLoop=1;jettySize=auto;html=1;exitX=0.5;exitY=1;exitDx=0;exitDy=0;entryX=0.5;entryY=0;entryDx=0;entryDy=0;fontSize=12;fontColor=#000000;" edge="1" parent="1" source="Psn35w7AXA0jimtYUnMg-14" target="Psn35w7AXA0jimtYUnMg-18">
          <mxGeometry relative="1" as="geometry" />
        </mxCell>
        <mxCell id="Psn35w7AXA0jimtYUnMg-14" value="保证对象即使不赋初始值就可以使用，虚拟机会为对象初始化零值。" style="rounded=0;whiteSpace=wrap;html=1;fontSize=12;fontColor=#000000;" vertex="1" parent="1">
          <mxGeometry x="235" y="340" width="190" height="60" as="geometry" />
        </mxCell>
        <mxCell id="Psn35w7AXA0jimtYUnMg-17" value="类加载" style="text;html=1;strokeColor=none;fillColor=none;align=center;verticalAlign=middle;whiteSpace=wrap;rounded=0;fontSize=12;fontColor=#000000;" vertex="1" parent="1">
          <mxGeometry x="685" y="157.5" width="60" height="30" as="geometry" />
        </mxCell>
        <mxCell id="Psn35w7AXA0jimtYUnMg-21" style="edgeStyle=orthogonalEdgeStyle;rounded=0;orthogonalLoop=1;jettySize=auto;html=1;exitX=0.5;exitY=1;exitDx=0;exitDy=0;entryX=0.5;entryY=0;entryDx=0;entryDy=0;fontSize=12;fontColor=#000000;" edge="1" parent="1" source="Psn35w7AXA0jimtYUnMg-18" target="Psn35w7AXA0jimtYUnMg-20">
          <mxGeometry relative="1" as="geometry" />
        </mxCell>
        <mxCell id="Psn35w7AXA0jimtYUnMg-18" value="设置对象头：元数据信息，hashCode，GC信息，锁信息" style="rounded=0;whiteSpace=wrap;html=1;fontSize=12;fontColor=#000000;" vertex="1" parent="1">
          <mxGeometry x="270" y="430" width="120" height="60" as="geometry" />
        </mxCell>
        <mxCell id="Psn35w7AXA0jimtYUnMg-20" value="执行Class文件的&amp;lt;init&amp;gt;方法，对初始值进行覆盖" style="rounded=1;whiteSpace=wrap;html=1;fontSize=12;fontColor=#000000;" vertex="1" parent="1">
          <mxGeometry x="270" y="520" width="120" height="60" as="geometry" />
        </mxCell>
        <mxCell id="Psn35w7AXA0jimtYUnMg-27" style="edgeStyle=orthogonalEdgeStyle;rounded=0;orthogonalLoop=1;jettySize=auto;html=1;exitX=0.5;exitY=1;exitDx=0;exitDy=0;fontSize=12;fontColor=#000000;" edge="1" parent="1" source="Psn35w7AXA0jimtYUnMg-22" target="Psn35w7AXA0jimtYUnMg-24">
          <mxGeometry relative="1" as="geometry" />
        </mxCell>
        <mxCell id="Psn35w7AXA0jimtYUnMg-22" value="加载" style="rounded=0;whiteSpace=wrap;html=1;fontSize=12;fillColor=#dae8fc;strokeColor=#6c8ebf;" vertex="1" parent="1">
          <mxGeometry x="580" y="207.5" width="50" height="30" as="geometry" />
        </mxCell>
        <mxCell id="Psn35w7AXA0jimtYUnMg-23" value="全类名---&amp;gt;二进制流&lt;br&gt;静态类数据转化为方法区的运行时数据&lt;br&gt;&lt;strike&gt;在堆中生成代表这个类的Class对象，作为该类访问入口&lt;/strike&gt;" style="rounded=0;whiteSpace=wrap;html=1;fontSize=12;fontColor=#000000;" vertex="1" parent="1">
          <mxGeometry x="640" y="192.5" width="210" height="60" as="geometry" />
        </mxCell>
        <mxCell id="Psn35w7AXA0jimtYUnMg-24" value="验证" style="rounded=0;whiteSpace=wrap;html=1;fontSize=12;fillColor=#dae8fc;strokeColor=#6c8ebf;" vertex="1" parent="1">
          <mxGeometry x="580" y="282.5" width="50" height="30" as="geometry" />
        </mxCell>
        <mxCell id="Psn35w7AXA0jimtYUnMg-25" value="确保Class文件的字节流信息符合虚拟机规范，以及安全性&lt;br&gt;&lt;strike&gt;文件格式，元数据，字节码，符号引用&lt;/strike&gt;" style="rounded=0;whiteSpace=wrap;html=1;fontSize=12;fontColor=#000000;" vertex="1" parent="1">
          <mxGeometry x="640" y="267.5" width="210" height="60" as="geometry" />
        </mxCell>
        <mxCell id="Psn35w7AXA0jimtYUnMg-32" style="edgeStyle=orthogonalEdgeStyle;rounded=0;orthogonalLoop=1;jettySize=auto;html=1;exitX=0.5;exitY=1;exitDx=0;exitDy=0;entryX=0.5;entryY=0;entryDx=0;entryDy=0;fontSize=12;fontColor=#FF0000;" edge="1" parent="1" source="Psn35w7AXA0jimtYUnMg-28">
          <mxGeometry relative="1" as="geometry">
            <mxPoint x="605" y="364.5" as="targetPoint" />
          </mxGeometry>
        </mxCell>
        <mxCell id="Psn35w7AXA0jimtYUnMg-28" value="验证" style="rounded=0;whiteSpace=wrap;html=1;fontSize=12;fillColor=#dae8fc;strokeColor=#6c8ebf;" vertex="1" parent="1">
          <mxGeometry x="580" y="282.5" width="50" height="30" as="geometry" />
        </mxCell>
        <mxCell id="Psn35w7AXA0jimtYUnMg-31" value="为类&lt;font color=&quot;#ff0000&quot;&gt;静态变量&lt;/font&gt;分配内存，设置&lt;font color=&quot;#ff0000&quot;&gt;默认值&lt;br&gt;&lt;/font&gt;常量在准备阶段赋&lt;font color=&quot;#ff0000&quot;&gt;初始值&lt;/font&gt;" style="rounded=0;whiteSpace=wrap;html=1;fontSize=12;fontColor=#000000;" vertex="1" parent="1">
          <mxGeometry x="640" y="347.5" width="210" height="60" as="geometry" />
        </mxCell>
        <mxCell id="Psn35w7AXA0jimtYUnMg-39" value="" style="edgeStyle=orthogonalEdgeStyle;rounded=0;orthogonalLoop=1;jettySize=auto;html=1;fontSize=12;fontColor=#FF0000;" edge="1" parent="1" source="Psn35w7AXA0jimtYUnMg-33" target="Psn35w7AXA0jimtYUnMg-37">
          <mxGeometry relative="1" as="geometry" />
        </mxCell>
        <mxCell id="Psn35w7AXA0jimtYUnMg-40" style="edgeStyle=orthogonalEdgeStyle;rounded=0;orthogonalLoop=1;jettySize=auto;html=1;exitX=0.5;exitY=1;exitDx=0;exitDy=0;entryX=0.5;entryY=0;entryDx=0;entryDy=0;fontSize=12;fontColor=#FF0000;" edge="1" parent="1" source="Psn35w7AXA0jimtYUnMg-33" target="Psn35w7AXA0jimtYUnMg-35">
          <mxGeometry relative="1" as="geometry" />
        </mxCell>
        <mxCell id="Psn35w7AXA0jimtYUnMg-33" value="解析" style="rounded=0;whiteSpace=wrap;html=1;fontSize=12;fillColor=#dae8fc;strokeColor=#6c8ebf;" vertex="1" parent="1">
          <mxGeometry x="580" y="427.5" width="50" height="30" as="geometry" />
        </mxCell>
        <mxCell id="Psn35w7AXA0jimtYUnMg-38" style="edgeStyle=orthogonalEdgeStyle;rounded=0;orthogonalLoop=1;jettySize=auto;html=1;exitX=0.5;exitY=1;exitDx=0;exitDy=0;entryX=0.5;entryY=0;entryDx=0;entryDy=0;fontSize=12;fontColor=#FF0000;" edge="1" parent="1" source="Psn35w7AXA0jimtYUnMg-34" target="Psn35w7AXA0jimtYUnMg-33">
          <mxGeometry relative="1" as="geometry" />
        </mxCell>
        <mxCell id="Psn35w7AXA0jimtYUnMg-34" value="准备" style="rounded=0;whiteSpace=wrap;html=1;fontSize=12;fillColor=#dae8fc;strokeColor=#6c8ebf;" vertex="1" parent="1">
          <mxGeometry x="580" y="367.5" width="50" height="30" as="geometry" />
        </mxCell>
        <mxCell id="Psn35w7AXA0jimtYUnMg-35" value="初始化" style="rounded=0;whiteSpace=wrap;html=1;fontSize=12;fillColor=#dae8fc;strokeColor=#6c8ebf;" vertex="1" parent="1">
          <mxGeometry x="580" y="517.5" width="50" height="30" as="geometry" />
        </mxCell>
        <mxCell id="Psn35w7AXA0jimtYUnMg-36" value="将类中的符号引用转化为直接引用&lt;br&gt;将字面量的引用转化为地址的引用" style="rounded=0;whiteSpace=wrap;html=1;fontSize=12;fontColor=#000000;" vertex="1" parent="1">
          <mxGeometry x="640" y="422.5" width="210" height="55" as="geometry" />
        </mxCell>
        <mxCell id="Psn35w7AXA0jimtYUnMg-37" value="执行&lt;font color=&quot;#ff0000&quot;&gt;&amp;lt;clinit&amp;gt;函数将静态变量赋初始值&lt;/font&gt;" style="rounded=0;whiteSpace=wrap;html=1;fontSize=12;fontColor=#000000;" vertex="1" parent="1">
          <mxGeometry x="640" y="517.5" width="210" height="35" as="geometry" />
        </mxCell>
      </root>
    </mxGraphModel>
  </diagram>
</mxfile>
